Coordinates
version=1
nRows=5
nColumns=40
inDegrees=yes

Units are S.I. units (second, meters, Newtons, ...)
Angles are in degrees.

endheader
time	pelvis_tilt	pelvis_list	pelvis_rotation	pelvis_tx	pelvis_ty	pelvis_tz	hip_flexion_r	hip_adduction_r	hip_rotation_r	knee_angle_r	knee_angle_r_beta	ankle_angle_r	subtalar_angle_r	mtp_angle_r	hip_flexion_l	hip_adduction_l	hip_rotation_l	knee_angle_l	knee_angle_l_beta	ankle_angle_l	subtalar_angle_l	mtp_angle_l	lumbar_extension	lumbar_bending	lumbar_rotation	arm_flex_r	arm_add_r	arm_rot_r	elbow_flex_r	pro_sup_r	wrist_flex_r	wrist_dev_r	arm_flex_l	arm_add_l	arm_rot_l	elbow_flex_l	pro_sup_l	wrist_flex_l	wrist_dev_l
     21.50014286	     -3.81725532	     -3.78288681	      9.63268676	      0.91574899	      0.92794253	      0.41116270	      4.41654416	      1.78231672	    -18.06062782	     13.48026440	     13.48026440	     14.37932119	     -0.10434306	     -3.72157940	     30.10051393	     -8.12247010	     -0.68434215	     22.98745943	     22.98745943	      8.84592993	     -8.91722614	      6.97686515	    -11.19721131	      6.41055454	      5.28806103	     31.95877716	    -18.98374023	     -8.34533974	     72.90243222	     45.24751614	      0.00000000	      0.00000000	     -4.52937836	     -7.75021940	    -16.17488274	     29.40006510	     46.25725060	      0.00000000	      0.00000000
     21.50278571	     -4.04755842	     -3.81434857	      9.69685786	      0.91535977	      0.92757766	      0.41064486	      4.67441825	      1.71692032	    -18.20594993	     13.60400161	     13.60400161	     14.41750544	     -0.05886948	     -3.80073822	     30.36226079	     -7.88981131	     -0.22421835	     23.10798347	     23.10798347	      9.21381697	     -9.70085599	      8.84381520	    -10.88454073	      6.41706463	      5.41284852	     31.95124732	    -19.02148298	     -8.49833947	     72.30258027	     45.28081290	      0.00000000	      0.00000000	     -3.37683180	     -7.65942615	    -16.93048533	     26.59638879	     46.41055719	      0.00000000	      0.00000000
     21.50542857	     -4.06426825	     -3.85730345	      9.71570650	      0.91527585	      0.92748930	      0.41028468	      4.58536325	      1.74983088	    -18.28752108	     13.53444291	     13.53444291	     14.45973601	      0.08629888	     -3.77824403	     30.34138899	     -7.88306407	     -0.32856476	     23.16226713	     23.16226713	      9.29572651	     -9.68040405	      9.09810410	    -10.84661930	      6.43247887	      5.44145111	     31.83020741	    -18.97167046	     -8.52242716	     72.34955875	     45.28593813	      0.00000000	      0.00000000	     -3.28465126	     -7.65747183	    -17.51259548	     26.70344739	     46.50231564	      0.00000000	      0.00000000
     21.50807143	     -4.06768847	     -3.91175642	      9.74253810	      0.91521883	      0.92737310	      0.40985813	      4.44276280	      1.80915795	    -18.36086763	     13.38268399	     13.38268399	     14.48969539	      0.23781382	     -3.74766382	     30.27149171	     -7.86625033	     -0.36348980	     23.12953330	     23.12953330	      8.97459108	     -9.90239703	      8.43577236	    -10.85618951	      6.47219009	      5.37747736	     31.76092588	    -18.92161736	     -8.42644092	     72.60043844	     45.26930994	      0.00000000	      0.00000000	     -3.79234358	     -7.72399759	    -16.97089760	     28.03822126	     46.37069249	      0.00000000	      0.00000000
     21.51071429	     -4.08088256	     -3.90467730	      9.73912436	      0.91510134	      0.92729458	      0.40943544	      4.39651396	      1.77103963	    -18.38386277	     13.41511906	     13.41511906	     14.55273241	      0.28725717	     -3.73407985	     30.26903278	     -7.81122700	     -0.48910953	     23.29114731	     23.29114731	      9.35202321	     -9.86073657	      9.47215933	    -10.83919822	      6.44808078	      5.50037717	     31.62359360	    -18.95644193	     -8.52090364	     72.61967787	     45.29055114	      0.00000000	      0.00000000	     -3.20668565	     -7.52937472	    -18.63974253	     27.10063610	     46.65928907	      0.00000000	      0.00000000
